<svg width="24" height="24" viewBox="0 0 24 24" fill="none" xmlns="http://www.w3.org/2000/svg">
<path d="M8 21.436H6C4.11438 21.436 3.17157 21.436 2.58579 20.8652C2 20.2944 2 19.3758 2 17.5385V15.5898C2 13.7525 2 12.8339 2.58579 12.2631C3.17157 11.6924 4.11438 11.6924 6 11.6924H8C9.88562 11.6924 10.8284 11.6924 11.4142 12.2631C12 12.8339 12 13.7525 12 15.5898V17.5385C12 19.3758 12 20.2944 11.4142 20.8652C10.8284 21.436 9.88562 21.436 8 21.436Z" stroke="white" stroke-width="1.5" stroke-linecap="round" stroke-linejoin="round"/>
<path d="M6 14.6154L8 14.6154" stroke="white" stroke-width="1.5" stroke-linecap="round" stroke-linejoin="round"/>
<path d="M18 1.94873C15.7909 1.94873 14 3.71126 14 5.88546C14 7.12867 14.5 8.09531 15.5 8.95875C16.2049 9.56735 17.0588 10.5782 17.5714 11.3976C17.8173 11.7906 18.165 11.7906 18.4286 11.3976C18.9672 10.5945 19.7951 9.56735 20.5 8.95875C21.5 8.09531 22 7.12867 22 5.88546C22 3.71126 20.2091 1.94873 18 1.94873Z" stroke="white" stroke-width="1.5" stroke-linejoin="round"/>
<path d="M18 14.6154V17.5384C18 19.3757 18 20.2943 17.5314 20.8651C17.0839 21.4101 16.3761 21.4347 15 21.4358" stroke="white" stroke-width="1.5" stroke-linecap="round" stroke-linejoin="round"/>
<path d="M18.0078 5.84619L17.9986 5.84619" stroke="white" stroke-width="1.5" stroke-linecap="round" stroke-linejoin="round"/>
</svg>
