<svg width="85" height="44" viewBox="0 0 85 44" fill="none" xmlns="http://www.w3.org/2000/svg">
<path d="M37.5133 28L42.1933 13.6H45.2033L49.8833 28H47.7133L43.4033 14.86H43.9433L39.6833 28H37.5133ZM39.9433 24.75V22.79H47.4633V24.75H39.9433ZM56.7473 28.3C55.714 28.3 54.8473 28.05 54.1473 27.55C53.4473 27.0433 52.9173 26.36 52.5573 25.5C52.1973 24.64 52.0173 23.67 52.0173 22.59C52.0173 21.51 52.194 20.54 52.5473 19.68C52.9073 18.82 53.434 18.1433 54.1273 17.65C54.8273 17.15 55.6873 16.9 56.7073 16.9C57.7207 16.9 58.594 17.15 59.3273 17.65C60.0673 18.1433 60.6373 18.82 61.0373 19.68C61.4373 20.5333 61.6373 21.5033 61.6373 22.59C61.6373 23.67 61.4373 24.6433 61.0373 25.51C60.644 26.37 60.0807 27.05 59.3473 27.55C58.6207 28.05 57.754 28.3 56.7473 28.3ZM51.6673 32.8V17.2H53.5273V24.97H53.7673V32.8H51.6673ZM56.4573 26.41C57.124 26.41 57.674 26.24 58.1073 25.9C58.5473 25.56 58.874 25.1033 59.0873 24.53C59.3073 23.95 59.4173 23.3033 59.4173 22.59C59.4173 21.8833 59.3073 21.2433 59.0873 20.67C58.874 20.0967 58.544 19.64 58.0973 19.3C57.6507 18.96 57.0807 18.79 56.3873 18.79C55.734 18.79 55.194 18.95 54.7673 19.27C54.3473 19.59 54.034 20.0367 53.8273 20.61C53.6273 21.1833 53.5273 21.8433 53.5273 22.59C53.5273 23.3367 53.6273 23.9967 53.8273 24.57C54.0273 25.1433 54.344 25.5933 54.7773 25.92C55.2107 26.2467 55.7707 26.41 56.4573 26.41ZM68.6353 28.3C67.562 28.3 66.6186 28.0667 65.8053 27.6C64.9986 27.1267 64.3686 26.47 63.9153 25.63C63.4686 24.7833 63.2453 23.8033 63.2453 22.69C63.2453 21.51 63.4653 20.4867 63.9053 19.62C64.352 18.7533 64.972 18.0833 65.7653 17.61C66.5586 17.1367 67.482 16.9 68.5353 16.9C69.6353 16.9 70.572 17.1567 71.3453 17.67C72.1186 18.1767 72.6953 18.9 73.0753 19.84C73.462 20.78 73.6153 21.8967 73.5353 23.19H71.4453V22.43C71.432 21.1767 71.192 20.25 70.7253 19.65C70.2653 19.05 69.562 18.75 68.6153 18.75C67.5686 18.75 66.782 19.08 66.2553 19.74C65.7286 20.4 65.4653 21.3533 65.4653 22.6C65.4653 23.7867 65.7286 24.7067 66.2553 25.36C66.782 26.0067 67.542 26.33 68.5353 26.33C69.1886 26.33 69.752 26.1833 70.2253 25.89C70.7053 25.59 71.0786 25.1633 71.3453 24.61L73.3953 25.26C72.9753 26.2267 72.3386 26.9767 71.4853 27.51C70.632 28.0367 69.682 28.3 68.6353 28.3ZM64.7853 23.19V21.56H72.4953V23.19H64.7853ZM74.1883 28L78.2283 22.54L74.2783 17.2H76.7583L79.4483 20.91L82.1083 17.2H84.5883L80.6383 22.54L84.6883 28H82.1983L79.4483 24.17L76.6783 28H74.1883Z" fill="black"/>
<path d="M23 32C22.1818 32 21.4002 31.6698 19.8369 31.0095C15.9456 29.3657 14 28.5438 14 27.1613C14 26.7742 14 20.0645 14 17M23 32C23.8182 32 24.5998 31.6698 26.1631 31.0095C30.0544 29.3657 32 28.5438 32 27.1613V17M23 32L23 21.3548" stroke="black" stroke-width="1.5" stroke-linecap="round" stroke-linejoin="round"/>
<path d="M19.3259 19.6914L16.4047 18.2778C14.8016 17.5021 14 17.1142 14 16.5C14 15.8858 14.8016 15.4979 16.4047 14.7222L19.3259 13.3086C21.1288 12.4362 22.0303 12 23 12C23.9697 12 24.8712 12.4362 26.6741 13.3086L29.5953 14.7222C31.1984 15.4979 32 15.8858 32 16.5C32 17.1142 31.1984 17.5021 29.5953 18.2778L26.6741 19.6914C24.8712 20.5638 23.9697 21 23 21C22.0303 21 21.1288 20.5638 19.3259 19.6914Z" stroke="black" stroke-width="1.5" stroke-linecap="round" stroke-linejoin="round"/>
<path d="M17 22L19 23" stroke="black" stroke-width="1.5" stroke-linecap="round" stroke-linejoin="round"/>
<path d="M28 14L18 19" stroke="black" stroke-width="1.5" stroke-linecap="round" stroke-linejoin="round"/>
</svg>
