<svg width="83" height="27" viewBox="0 0 83 27" fill="none" xmlns="http://www.w3.org/2000/svg">
<path d="M35.5133 21L40.1933 6.6H43.2033L47.8833 21H45.7133L41.4033 7.86H41.9433L37.6833 21H35.5133ZM37.9433 17.75V15.79H45.4633V17.75H37.9433ZM54.7473 21.3C53.714 21.3 52.8473 21.05 52.1473 20.55C51.4473 20.0433 50.9173 19.36 50.5573 18.5C50.1973 17.64 50.0173 16.67 50.0173 15.59C50.0173 14.51 50.194 13.54 50.5473 12.68C50.9073 11.82 51.434 11.1433 52.1273 10.65C52.8273 10.15 53.6873 9.9 54.7073 9.9C55.7207 9.9 56.594 10.15 57.3273 10.65C58.0673 11.1433 58.6373 11.82 59.0373 12.68C59.4373 13.5333 59.6373 14.5033 59.6373 15.59C59.6373 16.67 59.4373 17.6433 59.0373 18.51C58.644 19.37 58.0807 20.05 57.3473 20.55C56.6207 21.05 55.754 21.3 54.7473 21.3ZM49.6673 25.8V10.2H51.5273V17.97H51.7673V25.8H49.6673ZM54.4573 19.41C55.124 19.41 55.674 19.24 56.1073 18.9C56.5473 18.56 56.874 18.1033 57.0873 17.53C57.3073 16.95 57.4173 16.3033 57.4173 15.59C57.4173 14.8833 57.3073 14.2433 57.0873 13.67C56.874 13.0967 56.544 12.64 56.0973 12.3C55.6507 11.96 55.0807 11.79 54.3873 11.79C53.734 11.79 53.194 11.95 52.7673 12.27C52.3473 12.59 52.034 13.0367 51.8273 13.61C51.6273 14.1833 51.5273 14.8433 51.5273 15.59C51.5273 16.3367 51.6273 16.9967 51.8273 17.57C52.0273 18.1433 52.344 18.5933 52.7773 18.92C53.2107 19.2467 53.7707 19.41 54.4573 19.41ZM66.6353 21.3C65.562 21.3 64.6186 21.0667 63.8053 20.6C62.9986 20.1267 62.3686 19.47 61.9153 18.63C61.4686 17.7833 61.2453 16.8033 61.2453 15.69C61.2453 14.51 61.4653 13.4867 61.9053 12.62C62.352 11.7533 62.972 11.0833 63.7653 10.61C64.5586 10.1367 65.482 9.9 66.5353 9.9C67.6353 9.9 68.572 10.1567 69.3453 10.67C70.1186 11.1767 70.6953 11.9 71.0753 12.84C71.462 13.78 71.6153 14.8967 71.5353 16.19H69.4453V15.43C69.432 14.1767 69.192 13.25 68.7253 12.65C68.2653 12.05 67.562 11.75 66.6153 11.75C65.5686 11.75 64.782 12.08 64.2553 12.74C63.7286 13.4 63.4653 14.3533 63.4653 15.6C63.4653 16.7867 63.7286 17.7067 64.2553 18.36C64.782 19.0067 65.542 19.33 66.5353 19.33C67.1886 19.33 67.752 19.1833 68.2253 18.89C68.7053 18.59 69.0786 18.1633 69.3453 17.61L71.3953 18.26C70.9753 19.2267 70.3386 19.9767 69.4853 20.51C68.632 21.0367 67.682 21.3 66.6353 21.3ZM62.7853 16.19V14.56H70.4953V16.19H62.7853ZM72.1883 21L76.2283 15.54L72.2783 10.2H74.7583L77.4483 13.91L80.1083 10.2H82.5883L78.6383 15.54L82.6883 21H80.1983L77.4483 17.17L74.6783 21H72.1883Z" fill="#7F7CAF"/>
<path d="M12 25C11.1818 25 10.4002 24.6698 8.83693 24.0095C4.94564 22.3657 3 21.5438 3 20.1613C3 19.7742 3 13.0645 3 10M12 25C12.8182 25 13.5998 24.6698 15.1631 24.0095C19.0544 22.3657 21 21.5438 21 20.1613V10M12 25L12 14.3548" stroke="#7F7CAF" stroke-width="1.5" stroke-linecap="round" stroke-linejoin="round"/>
<path d="M8.32592 12.6914L5.40472 11.2778C3.80157 10.5021 3 10.1142 3 9.5C3 8.88577 3.80157 8.4979 5.40472 7.72215L8.32592 6.30862C10.1288 5.43621 11.0303 5 12 5C12.9697 5 13.8712 5.4362 15.6741 6.30862L18.5953 7.72215C20.1984 8.4979 21 8.88577 21 9.5C21 10.1142 20.1984 10.5021 18.5953 11.2778L15.6741 12.6914C13.8712 13.5638 12.9697 14 12 14C11.0303 14 10.1288 13.5638 8.32592 12.6914Z" stroke="#7F7CAF" stroke-width="1.5" stroke-linecap="round" stroke-linejoin="round"/>
<path d="M6 15L8 16" stroke="#7F7CAF" stroke-width="1.5" stroke-linecap="round" stroke-linejoin="round"/>
<path d="M17 7L7 12" stroke="#7F7CAF" stroke-width="1.5" stroke-linecap="round" stroke-linejoin="round"/>
</svg>
