<svg width="22" height="22" viewBox="0 0 22 22" fill="none" xmlns="http://www.w3.org/2000/svg">
<path d="M0.680001 20.368L1.112 16.864C2.392 16.96 3.32 16.704 3.896 16.096C4.472 15.488 4.824 14.672 4.952 13.648C5.08 12.624 5.112 11.52 5.048 10.336H0.680001V0.207994H8.888V12.256C8.888 15.2 8.136 17.408 6.632 18.88C5.16 20.352 3.176 20.848 0.680001 20.368ZM12.872 20.368L13.304 16.864C14.584 16.96 15.512 16.704 16.088 16.096C16.664 15.488 17.016 14.672 17.144 13.648C17.272 12.624 17.304 11.52 17.24 10.336H12.872V0.207994H21.08V12.256C21.08 15.2 20.328 17.408 18.824 18.88C17.352 20.352 15.368 20.848 12.872 20.368Z" fill="#0D0630"/>
</svg>
